<svg width="36" height="36" viewBox="0 0 36 36" xmlns="http://www.w3.org/2000/svg">
  <path stroke="null" fill="currentColor" d="m0.72833,31.9593c-0.91472,0.91475 -0.91472,2.39759 0,3.31235c0.91472,0.91475 2.39781,0.91475 3.31253,0l-3.31253,-3.31235zm18.92787,-12.30309c0.91475,-0.91475 0.91475,-2.39759 0,-3.31235c-0.91475,-0.91475 -2.39759,-0.91475 -3.31235,0l3.31235,3.31235zm-3.31235,-3.31235c-0.91475,0.91475 -0.91475,2.39759 0,3.31235c0.91475,0.91475 2.39759,0.91475 3.31235,0l-3.31235,-3.31235zm18.92778,-12.303c0.91475,-0.91472 0.91475,-2.39781 0,-3.31253c-0.91475,-0.91472 -2.39759,-0.91472 -3.31235,0l3.31235,3.31253zm-15.61543,12.303c-0.91475,-0.91475 -2.39759,-0.91475 -3.31235,0c-0.91475,0.91475 -0.91475,2.39759 0,3.31235l3.31235,-3.31235zm12.30309,18.92778c0.91475,0.91475 2.39759,0.91475 3.31235,0c0.91475,-0.91475 0.91475,-2.39759 0,-3.31235l-3.31235,3.31235zm-15.61543,-15.61543c0.91475,0.91475 2.39759,0.91475 3.31235,0c0.91475,-0.91475 0.91475,-2.39759 0,-3.31235l-3.31235,3.31235zm-12.303,-18.92787c-0.91472,-0.91472 -2.39781,-0.91472 -3.31253,0c-0.91472,0.91472 -0.91472,2.39781 0,3.31253l3.31253,-3.31253zm0,34.54331l15.61534,-15.61543l-3.31235,-3.31235l-15.61553,15.61543l3.31253,3.31235zm15.61534,-15.61543l15.61543,-15.61534l-3.31235,-3.31253l-15.61543,15.61553l3.31235,3.31235zm-3.31235,0l15.61543,15.61543l3.31235,-3.31235l-15.61543,-15.61543l-3.31235,3.31235zm3.31235,-3.31235l-15.61534,-15.61553l-3.31253,3.31253l15.61553,15.61534l3.31235,-3.31235z"/>
</svg>
