<svg width="32" height="32" viewBox="0 0 32 32" fill="none" xmlns="http://www.w3.org/2000/svg">
	<path fill="currentColor" fill-rule="evenodd" clip-rule="evenodd" d="M17 8H11C9.34315 8 8 9.34315 8 11V21C8 22.6569 9.34315 24 11 24H17H18C18.5523 24 19 23.5523 19 23C19 22.4477 18.5523 22 18 22H17H11C10.4477 22 10 21.5523 10 21V11C10 10.4477 10.4477 10 11 10H17H18C18.5523 10 19 9.55228 19 9C19 8.44772 18.5523 8 18 8H17ZM17 15C16.4477 15 16 15.4477 16 16C16 16.5523 16.4477 17 17 17H22.6514L21.0431 18.6083C20.6526 18.9989 20.6526 19.632 21.0431 20.0226C21.4336 20.4131 22.0668 20.4131 22.4573 20.0226L25.6994 16.7805C25.8768 16.603 25.9737 16.3754 25.9898 16.1433C25.9965 16.0965 26 16.0486 26 16C26 15.9488 25.9962 15.8985 25.9887 15.8494C25.9619 15.637 25.8669 15.4315 25.7038 15.2683L22.4617 12.0263C22.0712 11.6358 21.438 11.6358 21.0475 12.0263C20.657 12.4168 20.657 13.05 21.0475 13.4405L22.607 15H17Z"></path>
</svg>